# xmcd CD database file
#
# Track frame offsets:
#	150
#	15472
#	30582
#	42870
#	56077
#	73770
#	84615
#	101895
#	112535
#	125682
#	136855
#	150775
#
# Disc length: 2236 seconds
#
# Revision: 0
# Processed by: cddbd v1.4PL0 Copyright (c) Steve Scherf et al.
# Submitted via: CDex 1.50beta9
#
DISCID=9008ba0c
DTITLE=Johnny Loughrey - Old Photographs
DYEAR=1900
DGENRE=Country
TTITLE0=It Still Takes A Woman To Build You A Home
TTITLE1=Old Photograohs
TTITLE2=Mary With The Golden Hair
TTITLE3=I'm Only A Stand In
TTITLE4=Galway Bay
TTITLE5=Shutters And Boards
TTITLE6=Big Iron
TTITLE7=I can't Help It If I'm Still In Love With You
TTITLE8=The Green Hills Of Sligo
TTITLE9=Millers Cave
TTITLE10=I Wounldn't Want To Live If You Didn't Love Me
TTITLE11=Raglan Road
EXTD=
EXTT0=
EXTT1=
EXTT2=
EXTT3=
EXTT4=
EXTT5=
EXTT6=
EXTT7=
EXTT8=
EXTT9=
EXTT10=
EXTT11=
PLAYORDER=
